%TF.GenerationSoftware,KiCad,Pcbnew,(6.0.7-1)-1*%
%TF.CreationDate,2022-09-01T10:44:34+09:00*%
%TF.ProjectId,Battery,42617474-6572-4792-9e6b-696361645f70,rev?*%
%TF.SameCoordinates,Original*%
%TF.FileFunction,Copper,L1,Top*%
%TF.FilePolarity,Positive*%
%FSLAX46Y46*%
G04 Gerber Fmt 4.6, Leading zero omitted, Abs format (unit mm)*
G04 Created by KiCad (PCBNEW (6.0.7-1)-1) date 2022-09-01 10:44:34*
%MOMM*%
%LPD*%
G01*
G04 APERTURE LIST*
%TA.AperFunction,ComponentPad*%
%ADD10C,5.700000*%
%TD*%
%TA.AperFunction,ComponentPad*%
%ADD11C,2.800000*%
%TD*%
%TA.AperFunction,ComponentPad*%
%ADD12O,2.800000X2.800000*%
%TD*%
%TA.AperFunction,ComponentPad*%
%ADD13R,1.500000X1.600000*%
%TD*%
%TA.AperFunction,ComponentPad*%
%ADD14C,1.600000*%
%TD*%
%TA.AperFunction,ComponentPad*%
%ADD15C,3.000000*%
%TD*%
%TA.AperFunction,Conductor*%
%ADD16C,0.250000*%
%TD*%
G04 APERTURE END LIST*
D10*
%TO.P,REF\u002A\u002A,1*%
%TO.N,N/C*%
X98462000Y-108294000D03*
%TD*%
%TO.P,REF\u002A\u002A,1*%
%TO.N,N/C*%
X146812000Y-108204000D03*
%TD*%
%TO.P,REF\u002A\u002A,1*%
%TO.N,N/C*%
X147574000Y-59690000D03*
%TD*%
%TO.P,REF\u002A\u002A,1*%
%TO.N,N/C*%
X99462000Y-59128000D03*
%TD*%
D11*
%TO.P,R4,1*%
%TO.N,Net-(J1-Pad3)*%
X134620000Y-88392000D03*
D12*
%TO.P,R4,2*%
%TO.N,GND*%
X134620000Y-108712000D03*
%TD*%
D11*
%TO.P,R3,1*%
%TO.N,+5VP*%
X134620000Y-59690000D03*
D12*
%TO.P,R3,2*%
%TO.N,Net-(J1-Pad3)*%
X134620000Y-80010000D03*
%TD*%
D11*
%TO.P,R2,1*%
%TO.N,Net-(J1-Pad2)*%
X124434000Y-88418000D03*
D12*
%TO.P,R2,2*%
%TO.N,GND*%
X124434000Y-108738000D03*
%TD*%
D11*
%TO.P,R1,1*%
%TO.N,+5VP*%
X124434000Y-59462000D03*
D12*
%TO.P,R1,2*%
%TO.N,Net-(J1-Pad2)*%
X124434000Y-79782000D03*
%TD*%
D13*
%TO.P,J1,1,VBUS*%
%TO.N,+5VP*%
X113030000Y-80346000D03*
D14*
%TO.P,J1,2,D-*%
%TO.N,Net-(J1-Pad2)*%
X113030000Y-82846000D03*
%TO.P,J1,3,D+*%
%TO.N,Net-(J1-Pad3)*%
X113030000Y-84846000D03*
%TO.P,J1,4,GND*%
%TO.N,GND*%
X113030000Y-87346000D03*
D15*
%TO.P,J1,5,Shield*%
X110320000Y-90416000D03*
X110320000Y-77276000D03*
%TD*%
D16*
%TO.N,+5VP*%
X124434000Y-59462000D02*
X134594000Y-59462000D01*
%TO.N,GND*%
X124434000Y-108738000D02*
X134594000Y-108738000D01*
%TO.N,Net-(J1-Pad3)*%
X113030000Y-84846000D02*
X118327000Y-90143000D01*
X118327000Y-90143000D02*
X132615000Y-90143000D01*
X132615000Y-90143000D02*
X134594000Y-88164000D01*
%TO.N,Net-(J1-Pad2)*%
X113030000Y-82846000D02*
X121370000Y-82846000D01*
X121370000Y-82846000D02*
X124434000Y-79782000D01*
X124434000Y-88418000D02*
X124434000Y-79782000D01*
%TO.N,Net-(J1-Pad3)*%
X134594000Y-88164000D02*
X134594000Y-79782000D01*
%TO.N,+5VP*%
X113030000Y-80346000D02*
X113030000Y-70866000D01*
X113030000Y-70866000D02*
X124434000Y-59462000D01*
%TD*%
%TA.AperFunction,Conductor*%
%TO.N,GND*%
G36*
X151257722Y-54990385D02*
G01*
X151325807Y-55010507D01*
X151372206Y-55064244D01*
X151383500Y-55116385D01*
X151383500Y-112013382D01*
X151363498Y-112081503D01*
X151309842Y-112127996D01*
X151257278Y-112139382D01*
X95096278Y-112040615D01*
X95028193Y-112020493D01*
X94981794Y-111966756D01*
X94970500Y-111914615D01*
X94970500Y-109197060D01*
X94990502Y-109128939D01*
X95044158Y-109082446D01*
X95114432Y-109072342D01*
X95179012Y-109101836D01*
X95218034Y-109163812D01*
X95270519Y-109355664D01*
X95403845Y-109694133D01*
X95405428Y-109697148D01*
X95571362Y-110013206D01*
X95571367Y-110013214D01*
X95572946Y-110016222D01*
X95574840Y-110019040D01*
X95574845Y-110019049D01*
X95746302Y-110274203D01*
X95775843Y-110318165D01*
X96010163Y-110596428D01*
X96137392Y-110718010D01*
X96270702Y-110845405D01*
X96270709Y-110845411D01*
X96273165Y-110847758D01*
X96561771Y-111069214D01*
X96564689Y-111070988D01*
X96869692Y-111256433D01*
X96869697Y-111256436D01*
X96872607Y-111258205D01*
X96875695Y-111259651D01*
X96875694Y-111259651D01*
X97198952Y-111411077D01*
X97198962Y-111411081D01*
X97202036Y-111412521D01*
X97205254Y-111413623D01*
X97205257Y-111413624D01*
X97542981Y-111529253D01*
X97542989Y-111529255D01*
X97546204Y-111530356D01*
X97901084Y-111610332D01*
X97954123Y-111616375D01*
X98259144Y-111651128D01*
X98259152Y-111651128D01*
X98262527Y-111651513D01*
X98265931Y-111651531D01*
X98265934Y-111651531D01*
X98464058Y-111652568D01*
X98626303Y-111653418D01*
X98629689Y-111653068D01*
X98629691Y-111653068D01*
X98984765Y-111616375D01*
X98984774Y-111616374D01*
X98988157Y-111616024D01*
X98991490Y-111615310D01*
X98991493Y-111615309D01*
X99101895Y-111591641D01*
X99343856Y-111539768D01*
X99689239Y-111425544D01*
X99692323Y-111424138D01*
X99692332Y-111424135D01*
X100017171Y-111276096D01*
X100020265Y-111274686D01*
X100197165Y-111169651D01*
X100330128Y-111090704D01*
X100330132Y-111090701D01*
X100333063Y-111088961D01*
X100623973Y-110870539D01*
X100889592Y-110621977D01*
X101126813Y-110346182D01*
X101271796Y-110135231D01*
X101330931Y-110049190D01*
X101330936Y-110049182D01*
X101332861Y-110046381D01*
X101334473Y-110043387D01*
X101334478Y-110043379D01*
X101503703Y-109729092D01*
X101505325Y-109726080D01*
X101642188Y-109389027D01*
X101741850Y-109039164D01*
X101746661Y-109011018D01*
X122544204Y-109011018D01*
X122580422Y-109209332D01*
X122582631Y-109217934D01*
X122665324Y-109465796D01*
X122668728Y-109474014D01*
X122785520Y-109707752D01*
X122790038Y-109715391D01*
X122938604Y-109930348D01*
X122944157Y-109937279D01*
X123121532Y-110129163D01*
X123127995Y-110135231D01*
X123330631Y-110300203D01*
X123337907Y-110305317D01*
X123561756Y-110440085D01*
X123569670Y-110444118D01*
X123810286Y-110546006D01*
X123818691Y-110548883D01*
X124071266Y-110615853D01*
X124079978Y-110617515D01*
X124162012Y-110627224D01*
X124176431Y-110624782D01*
X124180000Y-110612040D01*
X124180000Y-110611956D01*
X124688000Y-110611956D01*
X124691838Y-110625028D01*
X124706571Y-110626980D01*
X124876162Y-110598752D01*
X124884796Y-110596679D01*
X125133930Y-110517888D01*
X125142192Y-110514617D01*
X125377731Y-110401513D01*
X125385455Y-110397107D01*
X125602712Y-110251941D01*
X125609733Y-110246494D01*
X125804364Y-110072167D01*
X125810549Y-110065786D01*
X125978686Y-109865763D01*
X125983905Y-109858580D01*
X126122171Y-109636876D01*
X126126333Y-109629017D01*
X126231988Y-109390030D01*
X126234994Y-109381680D01*
X126305921Y-109130192D01*
X126307722Y-109121498D01*
X126322704Y-109009955D01*
X126320538Y-108995821D01*
X126307298Y-108992000D01*
X124706115Y-108992000D01*
X124690876Y-108996475D01*
X124689671Y-108997865D01*
X124688000Y-109005548D01*
X124688000Y-110611956D01*
X124180000Y-110611956D01*
X124180000Y-109010115D01*
X124175525Y-108994876D01*
X124174135Y-108993671D01*
X124166452Y-108992000D01*
X122558846Y-108992000D01*
X122546106Y-108995741D01*
X122544204Y-109011018D01*
X101746661Y-109011018D01*
X101751106Y-108985018D01*
X132730204Y-108985018D01*
X132766422Y-109183332D01*
X132768631Y-109191934D01*
X132851324Y-109439796D01*
X132854728Y-109448014D01*
X132971520Y-109681752D01*
X132976038Y-109689391D01*
X133124604Y-109904348D01*
X133130157Y-109911279D01*
X133307532Y-110103163D01*
X133313995Y-110109231D01*
X133516631Y-110274203D01*
X133523907Y-110279317D01*
X133747756Y-110414085D01*
X133755670Y-110418118D01*
X133996286Y-110520006D01*
X134004691Y-110522883D01*
X134257266Y-110589853D01*
X134265978Y-110591515D01*
X134348012Y-110601224D01*
X134362431Y-110598782D01*
X134366000Y-110586040D01*
X134366000Y-110585956D01*
X134874000Y-110585956D01*
X134877838Y-110599028D01*
X134892571Y-110600980D01*
X135062162Y-110572752D01*
X135070796Y-110570679D01*
X135319930Y-110491888D01*
X135328192Y-110488617D01*
X135563731Y-110375513D01*
X135571455Y-110371107D01*
X135788712Y-110225941D01*
X135795733Y-110220494D01*
X135990364Y-110046167D01*
X135996549Y-110039786D01*
X136164686Y-109839763D01*
X136169905Y-109832580D01*
X136308171Y-109610876D01*
X136312333Y-109603017D01*
X136417988Y-109364030D01*
X136420994Y-109355680D01*
X136491921Y-109104192D01*
X136493722Y-109095498D01*
X136508704Y-108983955D01*
X136506538Y-108969821D01*
X136493298Y-108966000D01*
X134892115Y-108966000D01*
X134876876Y-108970475D01*
X134875671Y-108971865D01*
X134874000Y-108979548D01*
X134874000Y-110585956D01*
X134366000Y-110585956D01*
X134366000Y-108984115D01*
X134361525Y-108968876D01*
X134360135Y-108967671D01*
X134352452Y-108966000D01*
X132744846Y-108966000D01*
X132732106Y-108969741D01*
X132730204Y-108985018D01*
X101751106Y-108985018D01*
X101753717Y-108969741D01*
X101802571Y-108683930D01*
X101802571Y-108683928D01*
X101803143Y-108680583D01*
X101805285Y-108645574D01*
X101816269Y-108465977D01*
X122543785Y-108465977D01*
X122546513Y-108480676D01*
X122558748Y-108484000D01*
X124161885Y-108484000D01*
X124177124Y-108479525D01*
X124178329Y-108478135D01*
X124180000Y-108470452D01*
X124180000Y-108465885D01*
X124688000Y-108465885D01*
X124692475Y-108481124D01*
X124693865Y-108482329D01*
X124701548Y-108484000D01*
X126310775Y-108484000D01*
X126325718Y-108479612D01*
X126327587Y-108469272D01*
X126326855Y-108464126D01*
X126321656Y-108439977D01*
X132729785Y-108439977D01*
X132732513Y-108454676D01*
X132744748Y-108458000D01*
X134347885Y-108458000D01*
X134363124Y-108453525D01*
X134364329Y-108452135D01*
X134366000Y-108444452D01*
X134366000Y-108439885D01*
X134874000Y-108439885D01*
X134878475Y-108455124D01*
X134879865Y-108456329D01*
X134887548Y-108458000D01*
X136496775Y-108458000D01*
X136511718Y-108453612D01*
X136513587Y-108443272D01*
X136512855Y-108438126D01*
X136459921Y-108192259D01*
X143448587Y-108192259D01*
X143448759Y-108195654D01*
X143448759Y-108195655D01*
X143463366Y-108484000D01*
X143466992Y-108555574D01*
X143467529Y-108558929D01*
X143467530Y-108558935D01*
X143486472Y-108677190D01*
X143524527Y-108914777D01*
X143620519Y-109265664D01*
X143753845Y-109604133D01*
X143755428Y-109607148D01*
X143921362Y-109923206D01*
X143921367Y-109923214D01*
X143922946Y-109926222D01*
X143924840Y-109929040D01*
X143924845Y-109929049D01*
X144063394Y-110135231D01*
X144125843Y-110228165D01*
X144360163Y-110506428D01*
X144470592Y-110611956D01*
X144620702Y-110755405D01*
X144620709Y-110755411D01*
X144623165Y-110757758D01*
X144911771Y-110979214D01*
X144914689Y-110980988D01*
X145219692Y-111166433D01*
X145219697Y-111166436D01*
X145222607Y-111168205D01*
X145225695Y-111169651D01*
X145225694Y-111169651D01*
X145548952Y-111321077D01*
X145548962Y-111321081D01*
X145552036Y-111322521D01*
X145555254Y-111323623D01*
X145555257Y-111323624D01*
X145892981Y-111439253D01*
X145892989Y-111439255D01*
X145896204Y-111440356D01*
X146251084Y-111520332D01*
X146304123Y-111526375D01*
X146609144Y-111561128D01*
X146609152Y-111561128D01*
X146612527Y-111561513D01*
X146615931Y-111561531D01*
X146615934Y-111561531D01*
X146814058Y-111562568D01*
X146976303Y-111563418D01*
X146979689Y-111563068D01*
X146979691Y-111563068D01*
X147334765Y-111526375D01*
X147334774Y-111526374D01*
X147338157Y-111526024D01*
X147341490Y-111525310D01*
X147341493Y-111525309D01*
X147451895Y-111501641D01*
X147693856Y-111449768D01*
X148039239Y-111335544D01*
X148042323Y-111334138D01*
X148042332Y-111334135D01*
X148367171Y-111186096D01*
X148370265Y-111184686D01*
X148414276Y-111158554D01*
X148680128Y-111000704D01*
X148680132Y-111000701D01*
X148683063Y-110998961D01*
X148973973Y-110780539D01*
X149239592Y-110531977D01*
X149476813Y-110256182D01*
X149625538Y-110039786D01*
X149680931Y-109959190D01*
X149680936Y-109959182D01*
X149682861Y-109956381D01*
X149684473Y-109953387D01*
X149684478Y-109953379D01*
X149809718Y-109720781D01*
X149855325Y-109636080D01*
X149992188Y-109299027D01*
X150091850Y-108949164D01*
X150153143Y-108590583D01*
X150155285Y-108555574D01*
X150175241Y-108229278D01*
X150175351Y-108227481D01*
X150175433Y-108204000D01*
X150155760Y-107840751D01*
X150096972Y-107481752D01*
X149999756Y-107131202D01*
X149995331Y-107120081D01*
X149886388Y-106846322D01*
X149865249Y-106793201D01*
X149735865Y-106548837D01*
X149696624Y-106474723D01*
X149696620Y-106474716D01*
X149695025Y-106471704D01*
X149693118Y-106468888D01*
X149693113Y-106468879D01*
X149492985Y-106173292D01*
X149491075Y-106170471D01*
X149255785Y-105893027D01*
X148991908Y-105642617D01*
X148702530Y-105422170D01*
X148699618Y-105420413D01*
X148699613Y-105420410D01*
X148393951Y-105236023D01*
X148393945Y-105236020D01*
X148391036Y-105234265D01*
X148061071Y-105081100D01*
X147716494Y-104964467D01*
X147707234Y-104962414D01*
X147632485Y-104945843D01*
X147361336Y-104885731D01*
X147232217Y-104871476D01*
X147003133Y-104846184D01*
X147003128Y-104846184D01*
X146999752Y-104845811D01*
X146996353Y-104845805D01*
X146996352Y-104845805D01*
X146824762Y-104845506D01*
X146635972Y-104845176D01*
X146500831Y-104859618D01*
X146277634Y-104883471D01*
X146277628Y-104883472D01*
X146274250Y-104883833D01*
X145918820Y-104961330D01*
X145573838Y-105076759D01*
X145243340Y-105228771D01*
X144931192Y-105415588D01*
X144641046Y-105635023D01*
X144376296Y-105884511D01*
X144140040Y-106161132D01*
X143935040Y-106461651D01*
X143763694Y-106782552D01*
X143762419Y-106785724D01*
X143762417Y-106785728D01*
X143629687Y-107115908D01*
X143628009Y-107120081D01*
X143627090Y-107123349D01*
X143627088Y-107123356D01*
X143530490Y-107467012D01*
X143529569Y-107470290D01*
X143529007Y-107473647D01*
X143529007Y-107473648D01*
X143493899Y-107683449D01*
X143469528Y-107829082D01*
X143448587Y-108192259D01*
X136459921Y-108192259D01*
X136457858Y-108182677D01*
X136455379Y-108174144D01*
X136364941Y-107929002D01*
X136361286Y-107920907D01*
X136237206Y-107690947D01*
X136232447Y-107683449D01*
X136077214Y-107473280D01*
X136071429Y-107466506D01*
X135888137Y-107280313D01*
X135881460Y-107274426D01*
X135673751Y-107115908D01*
X135666322Y-107111028D01*
X135438353Y-106983359D01*
X135430303Y-106979571D01*
X135186617Y-106885295D01*
X135178127Y-106882683D01*
X134923578Y-106823683D01*
X134914801Y-106822293D01*
X134892049Y-106820322D01*
X134877086Y-106823343D01*
X134874000Y-106835065D01*
X134874000Y-108439885D01*
X134366000Y-108439885D01*
X134366000Y-106835160D01*
X134362359Y-106822759D01*
X134346540Y-106820916D01*
X134119607Y-106866055D01*
X134111050Y-106868396D01*
X133864496Y-106954980D01*
X133856362Y-106958500D01*
X133624477Y-107078955D01*
X133616905Y-107083594D01*
X133404309Y-107235517D01*
X133397468Y-107241177D01*
X133208400Y-107421540D01*
X133202422Y-107428109D01*
X133040655Y-107633309D01*
X133035662Y-107640657D01*
X132904420Y-107866605D01*
X132900516Y-107874575D01*
X132802420Y-108116763D01*
X132799676Y-108125207D01*
X132736684Y-108378798D01*
X132735156Y-108387552D01*
X132729785Y-108439977D01*
X126321656Y-108439977D01*
X126271858Y-108208677D01*
X126269379Y-108200144D01*
X126178941Y-107955002D01*
X126175286Y-107946907D01*
X126051206Y-107716947D01*
X126046447Y-107709449D01*
X125891214Y-107499280D01*
X125885429Y-107492506D01*
X125702137Y-107306313D01*
X125695460Y-107300426D01*
X125487751Y-107141908D01*
X125480322Y-107137028D01*
X125252353Y-107009359D01*
X125244303Y-107005571D01*
X125000617Y-106911295D01*
X124992127Y-106908683D01*
X124737578Y-106849683D01*
X124728801Y-106848293D01*
X124706049Y-106846322D01*
X124691086Y-106849343D01*
X124688000Y-106861065D01*
X124688000Y-108465885D01*
X124180000Y-108465885D01*
X124180000Y-106861160D01*
X124176359Y-106848759D01*
X124160540Y-106846916D01*
X123933607Y-106892055D01*
X123925050Y-106894396D01*
X123678496Y-106980980D01*
X123670362Y-106984500D01*
X123438477Y-107104955D01*
X123430905Y-107109594D01*
X123218309Y-107261517D01*
X123211468Y-107267177D01*
X123022400Y-107447540D01*
X123016422Y-107454109D01*
X122854655Y-107659309D01*
X122849662Y-107666657D01*
X122718420Y-107892605D01*
X122714516Y-107900575D01*
X122616420Y-108142763D01*
X122613676Y-108151207D01*
X122550684Y-108404798D01*
X122549156Y-108413552D01*
X122543785Y-108465977D01*
X101816269Y-108465977D01*
X101825241Y-108319278D01*
X101825351Y-108317481D01*
X101825433Y-108294000D01*
X101805760Y-107930751D01*
X101746972Y-107571752D01*
X101649756Y-107221202D01*
X101645331Y-107210081D01*
X101526429Y-106911295D01*
X101515249Y-106883201D01*
X101460362Y-106779538D01*
X101346624Y-106564723D01*
X101346620Y-106564716D01*
X101345025Y-106561704D01*
X101343118Y-106558888D01*
X101343113Y-106558879D01*
X101142985Y-106263292D01*
X101141075Y-106260471D01*
X100905785Y-105983027D01*
X100641908Y-105732617D01*
X100352530Y-105512170D01*
X100349618Y-105510413D01*
X100349613Y-105510410D01*
X100043951Y-105326023D01*
X100043945Y-105326020D01*
X100041036Y-105324265D01*
X99711071Y-105171100D01*
X99366494Y-105054467D01*
X99357234Y-105052414D01*
X99282485Y-105035843D01*
X99011336Y-104975731D01*
X98874311Y-104960603D01*
X98653133Y-104936184D01*
X98653128Y-104936184D01*
X98649752Y-104935811D01*
X98646353Y-104935805D01*
X98646352Y-104935805D01*
X98474762Y-104935506D01*
X98285972Y-104935176D01*
X98150831Y-104949618D01*
X97927634Y-104973471D01*
X97927628Y-104973472D01*
X97924250Y-104973833D01*
X97568820Y-105051330D01*
X97223838Y-105166759D01*
X96893340Y-105318771D01*
X96581192Y-105505588D01*
X96291046Y-105725023D01*
X96026296Y-105974511D01*
X95790040Y-106251132D01*
X95585040Y-106551651D01*
X95583439Y-106554650D01*
X95419777Y-106861160D01*
X95413694Y-106872552D01*
X95412419Y-106875724D01*
X95412417Y-106875728D01*
X95314189Y-107120081D01*
X95278009Y-107210081D01*
X95277090Y-107213349D01*
X95277088Y-107213356D01*
X95217799Y-107424283D01*
X95180110Y-107484450D01*
X95115875Y-107514688D01*
X95045488Y-107505399D01*
X94991298Y-107459531D01*
X94970500Y-107390187D01*
X94970500Y-92005654D01*
X109095618Y-92005654D01*
X109102673Y-92015627D01*
X109133679Y-92041551D01*
X109140598Y-92046579D01*
X109365272Y-92187515D01*
X109372807Y-92191556D01*
X109614520Y-92300694D01*
X109622551Y-92303680D01*
X109876832Y-92379002D01*
X109885184Y-92380869D01*
X110147340Y-92420984D01*
X110155874Y-92421700D01*
X110421045Y-92425867D01*
X110429596Y-92425418D01*
X110692883Y-92393557D01*
X110701284Y-92391955D01*
X110957824Y-92324653D01*
X110965926Y-92321926D01*
X111210949Y-92220434D01*
X111218617Y-92216628D01*
X111447598Y-92082822D01*
X111454679Y-92078009D01*
X111534655Y-92015301D01*
X111543125Y-92003442D01*
X111536608Y-91991818D01*
X110332812Y-90788022D01*
X110318868Y-90780408D01*
X110317035Y-90780539D01*
X110310420Y-90784790D01*
X109102910Y-91992300D01*
X109095618Y-92005654D01*
X94970500Y-92005654D01*
X94970500Y-90399204D01*
X108307665Y-90399204D01*
X108322932Y-90663969D01*
X108324005Y-90672470D01*
X108375065Y-90932722D01*
X108377276Y-90940974D01*
X108463184Y-91191894D01*
X108466499Y-91199779D01*
X108585664Y-91436713D01*
X108590020Y-91444079D01*
X108719347Y-91632250D01*
X108729601Y-91640594D01*
X108743342Y-91633448D01*
X109947978Y-90428812D01*
X109954356Y-90417132D01*
X110684408Y-90417132D01*
X110684539Y-90418965D01*
X110688790Y-90425580D01*
X111895730Y-91632520D01*
X111907939Y-91639187D01*
X111919439Y-91630497D01*
X112016831Y-91497913D01*
X112021418Y-91490685D01*
X112147962Y-91257621D01*
X112151530Y-91249827D01*
X112245271Y-91001750D01*
X112247748Y-90993544D01*
X112306954Y-90735038D01*
X112308294Y-90726577D01*
X112332031Y-90460616D01*
X112332277Y-90455677D01*
X112332666Y-90418485D01*
X112332523Y-90413519D01*
X112314362Y-90147123D01*
X112313201Y-90138649D01*
X112259419Y-89878944D01*
X112257120Y-89870709D01*
X112168588Y-89620705D01*
X112165191Y-89612854D01*
X112043550Y-89377178D01*
X112039122Y-89369866D01*
X111920031Y-89200417D01*
X111909509Y-89192037D01*
X111896121Y-89199089D01*
X110692022Y-90403188D01*
X110684408Y-90417132D01*
X109954356Y-90417132D01*
X109955592Y-90414868D01*
X109955461Y-90413035D01*
X109951210Y-90406420D01*
X108743814Y-89199024D01*
X108731804Y-89192466D01*
X108720064Y-89201434D01*
X108611935Y-89351911D01*
X108607418Y-89359196D01*
X108483325Y-89593567D01*
X108479839Y-89601395D01*
X108388700Y-89850446D01*
X108386311Y-89858670D01*
X108329812Y-90117795D01*
X108328563Y-90126250D01*
X108307754Y-90390653D01*
X108307665Y-90399204D01*
X94970500Y-90399204D01*
X94970500Y-88828500D01*
X109096584Y-88828500D01*
X109102980Y-88839770D01*
X110307188Y-90043978D01*
X110321132Y-90051592D01*
X110322965Y-90051461D01*
X110329580Y-90047210D01*
X111536604Y-88840186D01*
X111543795Y-88827017D01*
X111536473Y-88816780D01*
X111489233Y-88778115D01*
X111482261Y-88773160D01*
X111256122Y-88634582D01*
X111248552Y-88630624D01*
X111005704Y-88524022D01*
X110997644Y-88521120D01*
X110742592Y-88448467D01*
X110734214Y-88446685D01*
X110631466Y-88432062D01*
X112308493Y-88432062D01*
X112317789Y-88444077D01*
X112368994Y-88479931D01*
X112378489Y-88485414D01*
X112575947Y-88577490D01*
X112586239Y-88581236D01*
X112796688Y-88637625D01*
X112807481Y-88639528D01*
X113024525Y-88658517D01*
X113035475Y-88658517D01*
X113252519Y-88639528D01*
X113263312Y-88637625D01*
X113473761Y-88581236D01*
X113484053Y-88577490D01*
X113681511Y-88485414D01*
X113691006Y-88479931D01*
X113743048Y-88443491D01*
X113751424Y-88433012D01*
X113744356Y-88419566D01*
X113042812Y-87718022D01*
X113028868Y-87710408D01*
X113027035Y-87710539D01*
X113020420Y-87714790D01*
X112314923Y-88420287D01*
X112308493Y-88432062D01*
X110631466Y-88432062D01*
X110471656Y-88409318D01*
X110463111Y-88408691D01*
X110197908Y-88407302D01*
X110189374Y-88407839D01*
X109926433Y-88442456D01*
X109918035Y-88444149D01*
X109662238Y-88514127D01*
X109654143Y-88516946D01*
X109410199Y-88620997D01*
X109402577Y-88624881D01*
X109175013Y-88761075D01*
X109167981Y-88765962D01*
X109105053Y-88816377D01*
X109096584Y-88828500D01*
X94970500Y-88828500D01*
X94970500Y-87351475D01*
X111717483Y-87351475D01*
X111736472Y-87568519D01*
X111738375Y-87579312D01*
X111794764Y-87789761D01*
X111798510Y-87800053D01*
X111890586Y-87997511D01*
X111896069Y-88007006D01*
X111932509Y-88059048D01*
X111942988Y-88067424D01*
X111956434Y-88060356D01*
X112657978Y-87358812D01*
X112665592Y-87344868D01*
X112665461Y-87343035D01*
X112661210Y-87336420D01*
X111955713Y-86630923D01*
X111943938Y-86624493D01*
X111931923Y-86633789D01*
X111896069Y-86684994D01*
X111890586Y-86694489D01*
X111798510Y-86891947D01*
X111794764Y-86902239D01*
X111738375Y-87112688D01*
X111736472Y-87123481D01*
X111717483Y-87340525D01*
X111717483Y-87351475D01*
X94970500Y-87351475D01*
X94970500Y-78865654D01*
X109095618Y-78865654D01*
X109102673Y-78875627D01*
X109133679Y-78901551D01*
X109140598Y-78906579D01*
X109365272Y-79047515D01*
X109372807Y-79051556D01*
X109614520Y-79160694D01*
X109622551Y-79163680D01*
X109876832Y-79239002D01*
X109885184Y-79240869D01*
X110147340Y-79280984D01*
X110155874Y-79281700D01*
X110421045Y-79285867D01*
X110429596Y-79285418D01*
X110692883Y-79253557D01*
X110701284Y-79251955D01*
X110957824Y-79184653D01*
X110965926Y-79181926D01*
X111210949Y-79080434D01*
X111218617Y-79076628D01*
X111447598Y-78942822D01*
X111454679Y-78938009D01*
X111534655Y-78875301D01*
X111543125Y-78863442D01*
X111536608Y-78851818D01*
X110332812Y-77648022D01*
X110318868Y-77640408D01*
X110317035Y-77640539D01*
X110310420Y-77644790D01*
X109102910Y-78852300D01*
X109095618Y-78865654D01*
X94970500Y-78865654D01*
X94970500Y-77259204D01*
X108307665Y-77259204D01*
X108322932Y-77523969D01*
X108324005Y-77532470D01*
X108375065Y-77792722D01*
X108377276Y-77800974D01*
X108463184Y-78051894D01*
X108466499Y-78059779D01*
X108585664Y-78296713D01*
X108590020Y-78304079D01*
X108719347Y-78492250D01*
X108729601Y-78500594D01*
X108743342Y-78493448D01*
X109947978Y-77288812D01*
X109954356Y-77277132D01*
X110684408Y-77277132D01*
X110684539Y-77278965D01*
X110688790Y-77285580D01*
X111895730Y-78492520D01*
X111907939Y-78499187D01*
X111919439Y-78490497D01*
X112016831Y-78357913D01*
X112021418Y-78350685D01*
X112147962Y-78117621D01*
X112151532Y-78109822D01*
X112152634Y-78106907D01*
X112153226Y-78106123D01*
X112153314Y-78105931D01*
X112153356Y-78105950D01*
X112195423Y-78050254D01*
X112262049Y-78025728D01*
X112331358Y-78041116D01*
X112381345Y-78091533D01*
X112396500Y-78151444D01*
X112396500Y-78911500D01*
X112376498Y-78979621D01*
X112322842Y-79026114D01*
X112270500Y-79037500D01*
X112231866Y-79037500D01*
X112169684Y-79044255D01*
X112033295Y-79095385D01*
X111916739Y-79182739D01*
X111829385Y-79299295D01*
X111778255Y-79435684D01*
X111771500Y-79497866D01*
X111771500Y-81194134D01*
X111778255Y-81256316D01*
X111829385Y-81392705D01*
X111916739Y-81509261D01*
X112033295Y-81596615D01*
X112041704Y-81599767D01*
X112041705Y-81599768D01*
X112091362Y-81618383D01*
X112137777Y-81635783D01*
X112194541Y-81678424D01*
X112219241Y-81744985D01*
X112204034Y-81814334D01*
X112182642Y-81842860D01*
X112023802Y-82001700D01*
X111892477Y-82189251D01*
X111890154Y-82194233D01*
X111890151Y-82194238D01*
X111798039Y-82391775D01*
X111795716Y-82396757D01*
X111736457Y-82617913D01*
X111716502Y-82846000D01*
X111736457Y-83074087D01*
X111737881Y-83079400D01*
X111737881Y-83079402D01*
X111790934Y-83277395D01*
X111795716Y-83295243D01*
X111798039Y-83300224D01*
X111798039Y-83300225D01*
X111890151Y-83497762D01*
X111890154Y-83497767D01*
X111892477Y-83502749D01*
X112023802Y-83690300D01*
X112090407Y-83756905D01*
X112124433Y-83819217D01*
X112119368Y-83890032D01*
X112090407Y-83935095D01*
X112023802Y-84001700D01*
X111892477Y-84189251D01*
X111890154Y-84194233D01*
X111890151Y-84194238D01*
X111798039Y-84391775D01*
X111795716Y-84396757D01*
X111736457Y-84617913D01*
X111716502Y-84846000D01*
X111736457Y-85074087D01*
X111737880Y-85079398D01*
X111737881Y-85079402D01*
X111753460Y-85137541D01*
X111795716Y-85295243D01*
X111798039Y-85300224D01*
X111798039Y-85300225D01*
X111890151Y-85497762D01*
X111890154Y-85497767D01*
X111892477Y-85502749D01*
X112023802Y-85690300D01*
X112185700Y-85852198D01*
X112190208Y-85855355D01*
X112190211Y-85855357D01*
X112293876Y-85927944D01*
X112373251Y-85983523D01*
X112378235Y-85985847D01*
X112380528Y-85987171D01*
X112429521Y-86038553D01*
X112442957Y-86108267D01*
X112416571Y-86174178D01*
X112380528Y-86205409D01*
X112368998Y-86212066D01*
X112316952Y-86248509D01*
X112308576Y-86258988D01*
X112315644Y-86272434D01*
X114104287Y-88061077D01*
X114116062Y-88067507D01*
X114128077Y-88058211D01*
X114163931Y-88007006D01*
X114169414Y-87997511D01*
X114261490Y-87800053D01*
X114265236Y-87789761D01*
X114321625Y-87579312D01*
X114323528Y-87568520D01*
X114342865Y-87347498D01*
X114368728Y-87281380D01*
X114426232Y-87239741D01*
X114497119Y-87235800D01*
X114557481Y-87269385D01*
X117823343Y-90535247D01*
X117830887Y-90543537D01*
X117835000Y-90550018D01*
X117840777Y-90555443D01*
X117884667Y-90596658D01*
X117887509Y-90599413D01*
X117907230Y-90619134D01*
X117910425Y-90621612D01*
X117919447Y-90629318D01*
X117951679Y-90659586D01*
X117958628Y-90663406D01*
X117969432Y-90669346D01*
X117985956Y-90680199D01*
X118001959Y-90692613D01*
X118042543Y-90710176D01*
X118053173Y-90715383D01*
X118091940Y-90736695D01*
X118099617Y-90738666D01*
X118099622Y-90738668D01*
X118111558Y-90741732D01*
X118130266Y-90748137D01*
X118148855Y-90756181D01*
X118156683Y-90757421D01*
X118156690Y-90757423D01*
X118192524Y-90763099D01*
X118204144Y-90765505D01*
X118235959Y-90773673D01*
X118246970Y-90776500D01*
X118267224Y-90776500D01*
X118286934Y-90778051D01*
X118306943Y-90781220D01*
X118314835Y-90780474D01*
X118333580Y-90778702D01*
X118350962Y-90777059D01*
X118362819Y-90776500D01*
X132536233Y-90776500D01*
X132547416Y-90777027D01*
X132554909Y-90778702D01*
X132562835Y-90778453D01*
X132562836Y-90778453D01*
X132622986Y-90776562D01*
X132626945Y-90776500D01*
X132654856Y-90776500D01*
X132658791Y-90776003D01*
X132658856Y-90775995D01*
X132670693Y-90775062D01*
X132702951Y-90774048D01*
X132706970Y-90773922D01*
X132714889Y-90773673D01*
X132734343Y-90768021D01*
X132753700Y-90764013D01*
X132765930Y-90762468D01*
X132765931Y-90762468D01*
X132773797Y-90761474D01*
X132781168Y-90758555D01*
X132781170Y-90758555D01*
X132814912Y-90745196D01*
X132826142Y-90741351D01*
X132860983Y-90731229D01*
X132860984Y-90731229D01*
X132868593Y-90729018D01*
X132875412Y-90724985D01*
X132875417Y-90724983D01*
X132886028Y-90718707D01*
X132903776Y-90710012D01*
X132922617Y-90702552D01*
X132942987Y-90687753D01*
X132958387Y-90676564D01*
X132968307Y-90670048D01*
X132999535Y-90651580D01*
X132999538Y-90651578D01*
X133006362Y-90647542D01*
X133020683Y-90633221D01*
X133035717Y-90620380D01*
X133037432Y-90619134D01*
X133052107Y-90608472D01*
X133080298Y-90574395D01*
X133088288Y-90565616D01*
X133560409Y-90093495D01*
X133622721Y-90059469D01*
X133693536Y-90064534D01*
X133714492Y-90074643D01*
X133747531Y-90094534D01*
X133747540Y-90094538D01*
X133751346Y-90096830D01*
X133755439Y-90098563D01*
X133996124Y-90200480D01*
X133996131Y-90200482D01*
X134000225Y-90202216D01*
X134096359Y-90227705D01*
X134257172Y-90270345D01*
X134257177Y-90270346D01*
X134261469Y-90271484D01*
X134265878Y-90272006D01*
X134265884Y-90272007D01*
X134415210Y-90289680D01*
X134529868Y-90303251D01*
X134800064Y-90296883D01*
X134804459Y-90296151D01*
X134804464Y-90296151D01*
X135062267Y-90253241D01*
X135062271Y-90253240D01*
X135066669Y-90252508D01*
X135234959Y-90199285D01*
X135320114Y-90172354D01*
X135320116Y-90172353D01*
X135324360Y-90171011D01*
X135328371Y-90169085D01*
X135328376Y-90169083D01*
X135563979Y-90055948D01*
X135563980Y-90055947D01*
X135567998Y-90054018D01*
X135680977Y-89978528D01*
X135789013Y-89906341D01*
X135789017Y-89906338D01*
X135792721Y-89903863D01*
X135796038Y-89900892D01*
X135796042Y-89900889D01*
X135990729Y-89726512D01*
X135994045Y-89723542D01*
X136167953Y-89516654D01*
X136176419Y-89503080D01*
X136308614Y-89291111D01*
X136308615Y-89291109D01*
X136310975Y-89287325D01*
X136420258Y-89040133D01*
X136493620Y-88780008D01*
X136512489Y-88639528D01*
X136529172Y-88515324D01*
X136529173Y-88515316D01*
X136529599Y-88512142D01*
X136530439Y-88485414D01*
X136533274Y-88395222D01*
X136533274Y-88395217D01*
X136533375Y-88392000D01*
X136514287Y-88122403D01*
X136457402Y-87858185D01*
X136447393Y-87831053D01*
X136365397Y-87608796D01*
X136363856Y-87604619D01*
X136334510Y-87550231D01*
X136237629Y-87370678D01*
X136237629Y-87370677D01*
X136235516Y-87366762D01*
X136074942Y-87149362D01*
X136056153Y-87130275D01*
X135914064Y-86985937D01*
X135885338Y-86956756D01*
X135708096Y-86821489D01*
X135674028Y-86795489D01*
X135674024Y-86795487D01*
X135670487Y-86792787D01*
X135434675Y-86660727D01*
X135308038Y-86611735D01*
X135251723Y-86568501D01*
X135227721Y-86501685D01*
X135227500Y-86494222D01*
X135227500Y-81911946D01*
X135247502Y-81843825D01*
X135301158Y-81797332D01*
X135315500Y-81791813D01*
X135324360Y-81789011D01*
X135328371Y-81787085D01*
X135328376Y-81787083D01*
X135563979Y-81673948D01*
X135563980Y-81673947D01*
X135567998Y-81672018D01*
X135688907Y-81591229D01*
X135789013Y-81524341D01*
X135789017Y-81524338D01*
X135792721Y-81521863D01*
X135796038Y-81518892D01*
X135796042Y-81518889D01*
X135990729Y-81344512D01*
X135994045Y-81341542D01*
X136167953Y-81134654D01*
X136179268Y-81116512D01*
X136308614Y-80909111D01*
X136308615Y-80909109D01*
X136310975Y-80905325D01*
X136420258Y-80658133D01*
X136493620Y-80398008D01*
X136511880Y-80262060D01*
X136529172Y-80133324D01*
X136529173Y-80133316D01*
X136529599Y-80130142D01*
X136533375Y-80010000D01*
X136514287Y-79740403D01*
X136457402Y-79476185D01*
X136448862Y-79453035D01*
X136365397Y-79226796D01*
X136363856Y-79222619D01*
X136334510Y-79168231D01*
X136237629Y-78988678D01*
X136237629Y-78988677D01*
X136235516Y-78984762D01*
X136074942Y-78767362D01*
X136068363Y-78760678D01*
X135888469Y-78577937D01*
X135885338Y-78574756D01*
X135808556Y-78516158D01*
X135674028Y-78413489D01*
X135674024Y-78413487D01*
X135670487Y-78410787D01*
X135434675Y-78278727D01*
X135182609Y-78181210D01*
X135178284Y-78180207D01*
X135178279Y-78180206D01*
X135061624Y-78153167D01*
X134919318Y-78120182D01*
X134650054Y-78096861D01*
X134645619Y-78097105D01*
X134645615Y-78097105D01*
X134384634Y-78111468D01*
X134384627Y-78111469D01*
X134380191Y-78111713D01*
X134248622Y-78137883D01*
X134119484Y-78163570D01*
X134119479Y-78163571D01*
X134115112Y-78164440D01*
X134110909Y-78165916D01*
X133864315Y-78252513D01*
X133864312Y-78252514D01*
X133860107Y-78253991D01*
X133856154Y-78256044D01*
X133856148Y-78256047D01*
X133750763Y-78310791D01*
X133620264Y-78378580D01*
X133616649Y-78381163D01*
X133616643Y-78381167D01*
X133403990Y-78533131D01*
X133403986Y-78533134D01*
X133400369Y-78535719D01*
X133397149Y-78538791D01*
X133217287Y-78710371D01*
X133204808Y-78722275D01*
X133075758Y-78885975D01*
X133055636Y-78911500D01*
X133037485Y-78934524D01*
X133035253Y-78938366D01*
X133035250Y-78938371D01*
X132903974Y-79164377D01*
X132903971Y-79164384D01*
X132901736Y-79168231D01*
X132900062Y-79172364D01*
X132851561Y-79292109D01*
X132800272Y-79418735D01*
X132799201Y-79423048D01*
X132799199Y-79423053D01*
X132775899Y-79516852D01*
X132735116Y-79681035D01*
X132734662Y-79685463D01*
X132734662Y-79685465D01*
X132725101Y-79778779D01*
X132707569Y-79949899D01*
X132718180Y-80219963D01*
X132766737Y-80485837D01*
X132852272Y-80742217D01*
X132854265Y-80746205D01*
X132932549Y-80902875D01*
X132973078Y-80983987D01*
X132975607Y-80987646D01*
X133079563Y-81138058D01*
X133126744Y-81206324D01*
X133207665Y-81293863D01*
X133299034Y-81392705D01*
X133310205Y-81404790D01*
X133313659Y-81407602D01*
X133313660Y-81407603D01*
X133380104Y-81461697D01*
X133519799Y-81575427D01*
X133523617Y-81577726D01*
X133523619Y-81577727D01*
X133546046Y-81591229D01*
X133751346Y-81714830D01*
X133883632Y-81770846D01*
X133938560Y-81815826D01*
X133960500Y-81886872D01*
X133960500Y-86511440D01*
X133940498Y-86579561D01*
X133886842Y-86626054D01*
X133876247Y-86630323D01*
X133864318Y-86634512D01*
X133864315Y-86634513D01*
X133860107Y-86635991D01*
X133856154Y-86638044D01*
X133856148Y-86638047D01*
X133765524Y-86685123D01*
X133620264Y-86760580D01*
X133616649Y-86763163D01*
X133616643Y-86763167D01*
X133403990Y-86915131D01*
X133403986Y-86915134D01*
X133400369Y-86917719D01*
X133204808Y-87104275D01*
X133037485Y-87316524D01*
X133035253Y-87320366D01*
X133035250Y-87320371D01*
X132903974Y-87546377D01*
X132903971Y-87546384D01*
X132901736Y-87550231D01*
X132800272Y-87800735D01*
X132799201Y-87805048D01*
X132799199Y-87805053D01*
X132736314Y-88058211D01*
X132735116Y-88063035D01*
X132734662Y-88067463D01*
X132734662Y-88067465D01*
X132726816Y-88144048D01*
X132707569Y-88331899D01*
X132709804Y-88388779D01*
X132717366Y-88581236D01*
X132718180Y-88601963D01*
X132766737Y-88867837D01*
X132768146Y-88872060D01*
X132799003Y-88964550D01*
X132801587Y-89035499D01*
X132768574Y-89093522D01*
X132389499Y-89472596D01*
X132327187Y-89506621D01*
X132300404Y-89509500D01*
X126229705Y-89509500D01*
X126161584Y-89489498D01*
X126115091Y-89435842D01*
X126104987Y-89365568D01*
X126121135Y-89321357D01*
X126120534Y-89321039D01*
X126122614Y-89317110D01*
X126124975Y-89313325D01*
X126234258Y-89066133D01*
X126307620Y-88806008D01*
X126330237Y-88637625D01*
X126343172Y-88541324D01*
X126343173Y-88541316D01*
X126343599Y-88538142D01*
X126345429Y-88479931D01*
X126347274Y-88421222D01*
X126347274Y-88421217D01*
X126347375Y-88418000D01*
X126328287Y-88148403D01*
X126271402Y-87884185D01*
X126251801Y-87831053D01*
X126179397Y-87634796D01*
X126177856Y-87630619D01*
X126148510Y-87576231D01*
X126051629Y-87396678D01*
X126051629Y-87396677D01*
X126049516Y-87392762D01*
X125888942Y-87175362D01*
X125866884Y-87152954D01*
X125702469Y-86985937D01*
X125699338Y-86982756D01*
X125580350Y-86891947D01*
X125488028Y-86821489D01*
X125488024Y-86821487D01*
X125484487Y-86818787D01*
X125248675Y-86686727D01*
X125244196Y-86684994D01*
X125190032Y-86664040D01*
X125148037Y-86647793D01*
X125091723Y-86604561D01*
X125067721Y-86537744D01*
X125067500Y-86530281D01*
X125067500Y-81674307D01*
X125087502Y-81606186D01*
X125138958Y-81560724D01*
X125377979Y-81445948D01*
X125377980Y-81445947D01*
X125381998Y-81444018D01*
X125494977Y-81368528D01*
X125603013Y-81296341D01*
X125603017Y-81296338D01*
X125606721Y-81293863D01*
X125610038Y-81290892D01*
X125610042Y-81290889D01*
X125804729Y-81116512D01*
X125808045Y-81113542D01*
X125981953Y-80906654D01*
X126124975Y-80677325D01*
X126234258Y-80430133D01*
X126307620Y-80170008D01*
X126329112Y-80010000D01*
X126343172Y-79905324D01*
X126343173Y-79905316D01*
X126343599Y-79902142D01*
X126347375Y-79782000D01*
X126340227Y-79681035D01*
X126328602Y-79516852D01*
X126328287Y-79512403D01*
X126271402Y-79248185D01*
X126268015Y-79239002D01*
X126179397Y-78998796D01*
X126177856Y-78994619D01*
X126174650Y-78988678D01*
X126051629Y-78760678D01*
X126051629Y-78760677D01*
X126049516Y-78756762D01*
X125888942Y-78539362D01*
X125882809Y-78533131D01*
X125760230Y-78408612D01*
X125699338Y-78346756D01*
X125575850Y-78252513D01*
X125488028Y-78185489D01*
X125488024Y-78185487D01*
X125484487Y-78182787D01*
X125248675Y-78050727D01*
X124996609Y-77953210D01*
X124992284Y-77952207D01*
X124992279Y-77952206D01*
X124886748Y-77927746D01*
X124733318Y-77892182D01*
X124464054Y-77868861D01*
X124459619Y-77869105D01*
X124459615Y-77869105D01*
X124198634Y-77883468D01*
X124198627Y-77883469D01*
X124194191Y-77883713D01*
X124062622Y-77909883D01*
X123933484Y-77935570D01*
X123933479Y-77935571D01*
X123929112Y-77936440D01*
X123924909Y-77937916D01*
X123678315Y-78024513D01*
X123678312Y-78024514D01*
X123674107Y-78025991D01*
X123670154Y-78028044D01*
X123670148Y-78028047D01*
X123547934Y-78091533D01*
X123434264Y-78150580D01*
X123430649Y-78153163D01*
X123430643Y-78153167D01*
X123217990Y-78305131D01*
X123217986Y-78305134D01*
X123214369Y-78307719D01*
X123211149Y-78310791D01*
X123103494Y-78413489D01*
X123018808Y-78494275D01*
X122851485Y-78706524D01*
X122849253Y-78710366D01*
X122849250Y-78710371D01*
X122717974Y-78936377D01*
X122717971Y-78936384D01*
X122715736Y-78940231D01*
X122714062Y-78944364D01*
X122652893Y-79095385D01*
X122614272Y-79190735D01*
X122613201Y-79195048D01*
X122613199Y-79195053D01*
X122550189Y-79448714D01*
X122549116Y-79453035D01*
X122548662Y-79457463D01*
X122548662Y-79457465D01*
X122525756Y-79681035D01*
X122521569Y-79721899D01*
X122532180Y-79991963D01*
X122580737Y-80257837D01*
X122666272Y-80514217D01*
X122668264Y-80518204D01*
X122668265Y-80518206D01*
X122672206Y-80526093D01*
X122684761Y-80595971D01*
X122657545Y-80661544D01*
X122648588Y-80671507D01*
X121144500Y-82175595D01*
X121082188Y-82209621D01*
X121055405Y-82212500D01*
X114249394Y-82212500D01*
X114181273Y-82192498D01*
X114146181Y-82158771D01*
X114039357Y-82006211D01*
X114039355Y-82006208D01*
X114036198Y-82001700D01*
X113877358Y-81842860D01*
X113843332Y-81780548D01*
X113848397Y-81709733D01*
X113890944Y-81652897D01*
X113922223Y-81635784D01*
X113968638Y-81618383D01*
X114018295Y-81599768D01*
X114018296Y-81599767D01*
X114026705Y-81596615D01*
X114143261Y-81509261D01*
X114230615Y-81392705D01*
X114281745Y-81256316D01*
X114288500Y-81194134D01*
X114288500Y-79497866D01*
X114281745Y-79435684D01*
X114230615Y-79299295D01*
X114143261Y-79182739D01*
X114026705Y-79095385D01*
X113890316Y-79044255D01*
X113828134Y-79037500D01*
X113789500Y-79037500D01*
X113721379Y-79017498D01*
X113674886Y-78963842D01*
X113663500Y-78911500D01*
X113663500Y-71180594D01*
X113683502Y-71112473D01*
X113700405Y-71091499D01*
X123547267Y-61244637D01*
X123609579Y-61210611D01*
X123685491Y-61217705D01*
X123814225Y-61272216D01*
X123955307Y-61309623D01*
X124071172Y-61340345D01*
X124071177Y-61340346D01*
X124075469Y-61341484D01*
X124079878Y-61342006D01*
X124079884Y-61342007D01*
X124229210Y-61359680D01*
X124343868Y-61373251D01*
X124614064Y-61366883D01*
X124618459Y-61366151D01*
X124618464Y-61366151D01*
X124876267Y-61323241D01*
X124876271Y-61323240D01*
X124880669Y-61322508D01*
X125126895Y-61244637D01*
X125134114Y-61242354D01*
X125134116Y-61242353D01*
X125138360Y-61241011D01*
X125142371Y-61239085D01*
X125142376Y-61239083D01*
X125377979Y-61125948D01*
X125377980Y-61125947D01*
X125381998Y-61124018D01*
X125494977Y-61048528D01*
X125603013Y-60976341D01*
X125603017Y-60976338D01*
X125606721Y-60973863D01*
X125610038Y-60970892D01*
X125610042Y-60970889D01*
X125804729Y-60796512D01*
X125808045Y-60793542D01*
X125981953Y-60586654D01*
X126000501Y-60556914D01*
X126122614Y-60361111D01*
X126122615Y-60361109D01*
X126124975Y-60357325D01*
X126160942Y-60275971D01*
X126207547Y-60170552D01*
X126253385Y-60116337D01*
X126322787Y-60095500D01*
X132652480Y-60095500D01*
X132720601Y-60115502D01*
X132767094Y-60169158D01*
X132772004Y-60181623D01*
X132852272Y-60422217D01*
X132860379Y-60438441D01*
X132932549Y-60582875D01*
X132973078Y-60663987D01*
X132975607Y-60667646D01*
X133122637Y-60880381D01*
X133126744Y-60886324D01*
X133310205Y-61084790D01*
X133313659Y-61087602D01*
X133313660Y-61087603D01*
X133380104Y-61141697D01*
X133519799Y-61255427D01*
X133523617Y-61257726D01*
X133523619Y-61257727D01*
X133676123Y-61349542D01*
X133751346Y-61394830D01*
X133755441Y-61396564D01*
X133755443Y-61396565D01*
X133996124Y-61498480D01*
X133996131Y-61498482D01*
X134000225Y-61500216D01*
X134096358Y-61525705D01*
X134257172Y-61568345D01*
X134257177Y-61568346D01*
X134261469Y-61569484D01*
X134265878Y-61570006D01*
X134265884Y-61570007D01*
X134415210Y-61587680D01*
X134529868Y-61601251D01*
X134800064Y-61594883D01*
X134804459Y-61594151D01*
X134804464Y-61594151D01*
X135062267Y-61551241D01*
X135062271Y-61551240D01*
X135066669Y-61550508D01*
X135234959Y-61497285D01*
X135320114Y-61470354D01*
X135320116Y-61470353D01*
X135324360Y-61469011D01*
X135328371Y-61467085D01*
X135328376Y-61467083D01*
X135563979Y-61353948D01*
X135563980Y-61353947D01*
X135567998Y-61352018D01*
X135734132Y-61241011D01*
X135789013Y-61204341D01*
X135789017Y-61204338D01*
X135792721Y-61201863D01*
X135796038Y-61198892D01*
X135796042Y-61198889D01*
X135990729Y-61024512D01*
X135994045Y-61021542D01*
X136167953Y-60814654D01*
X136179268Y-60796512D01*
X136308614Y-60589111D01*
X136308615Y-60589109D01*
X136310975Y-60585325D01*
X136323536Y-60556914D01*
X136378843Y-60431812D01*
X136420258Y-60338133D01*
X136493620Y-60078008D01*
X136511880Y-59942060D01*
X136529172Y-59813324D01*
X136529173Y-59813316D01*
X136529599Y-59810142D01*
X136533375Y-59690000D01*
X136532544Y-59678259D01*
X144210587Y-59678259D01*
X144228992Y-60041574D01*
X144229529Y-60044929D01*
X144229530Y-60044935D01*
X144249651Y-60170552D01*
X144286527Y-60400777D01*
X144382519Y-60751664D01*
X144515845Y-61090133D01*
X144517428Y-61093148D01*
X144683362Y-61409206D01*
X144683367Y-61409214D01*
X144684946Y-61412222D01*
X144686840Y-61415040D01*
X144686845Y-61415049D01*
X144811897Y-61601146D01*
X144887843Y-61714165D01*
X145122163Y-61992428D01*
X145226574Y-62092205D01*
X145382702Y-62241405D01*
X145382709Y-62241411D01*
X145385165Y-62243758D01*
X145673771Y-62465214D01*
X145676689Y-62466988D01*
X145981692Y-62652433D01*
X145981697Y-62652436D01*
X145984607Y-62654205D01*
X145987695Y-62655651D01*
X145987694Y-62655651D01*
X146310952Y-62807077D01*
X146310962Y-62807081D01*
X146314036Y-62808521D01*
X146317254Y-62809623D01*
X146317257Y-62809624D01*
X146654981Y-62925253D01*
X146654989Y-62925255D01*
X146658204Y-62926356D01*
X147013084Y-63006332D01*
X147066123Y-63012375D01*
X147371144Y-63047128D01*
X147371152Y-63047128D01*
X147374527Y-63047513D01*
X147377931Y-63047531D01*
X147377934Y-63047531D01*
X147576058Y-63048568D01*
X147738303Y-63049418D01*
X147741689Y-63049068D01*
X147741691Y-63049068D01*
X148096765Y-63012375D01*
X148096774Y-63012374D01*
X148100157Y-63012024D01*
X148103490Y-63011310D01*
X148103493Y-63011309D01*
X148213895Y-62987641D01*
X148455856Y-62935768D01*
X148801239Y-62821544D01*
X148804323Y-62820138D01*
X148804332Y-62820135D01*
X149129171Y-62672096D01*
X149132265Y-62670686D01*
X149440925Y-62487418D01*
X149442128Y-62486704D01*
X149442132Y-62486701D01*
X149445063Y-62484961D01*
X149735973Y-62266539D01*
X150001592Y-62017977D01*
X150238813Y-61742182D01*
X150358288Y-61568345D01*
X150442931Y-61445190D01*
X150442936Y-61445182D01*
X150444861Y-61442381D01*
X150446473Y-61439387D01*
X150446478Y-61439379D01*
X150587554Y-61177370D01*
X150617325Y-61122080D01*
X150754188Y-60785027D01*
X150853850Y-60435164D01*
X150895272Y-60192834D01*
X150914571Y-60079930D01*
X150914571Y-60079928D01*
X150915143Y-60076583D01*
X150917285Y-60041574D01*
X150937241Y-59715278D01*
X150937351Y-59713481D01*
X150937433Y-59690000D01*
X150917760Y-59326751D01*
X150858972Y-58967752D01*
X150761756Y-58617202D01*
X150759300Y-58611029D01*
X150628508Y-58282365D01*
X150627249Y-58279201D01*
X150570067Y-58171203D01*
X150458624Y-57960723D01*
X150458620Y-57960716D01*
X150457025Y-57957704D01*
X150455118Y-57954888D01*
X150455113Y-57954879D01*
X150254985Y-57659292D01*
X150253075Y-57656471D01*
X150017785Y-57379027D01*
X149753908Y-57128617D01*
X149464530Y-56908170D01*
X149461618Y-56906413D01*
X149461613Y-56906410D01*
X149155951Y-56722023D01*
X149155945Y-56722020D01*
X149153036Y-56720265D01*
X148823071Y-56567100D01*
X148478494Y-56450467D01*
X148469234Y-56448414D01*
X148394485Y-56431843D01*
X148123336Y-56371731D01*
X147994217Y-56357476D01*
X147765133Y-56332184D01*
X147765128Y-56332184D01*
X147761752Y-56331811D01*
X147758353Y-56331805D01*
X147758352Y-56331805D01*
X147586762Y-56331506D01*
X147397972Y-56331176D01*
X147300021Y-56341644D01*
X147039634Y-56369471D01*
X147039628Y-56369472D01*
X147036250Y-56369833D01*
X146680820Y-56447330D01*
X146335838Y-56562759D01*
X146332745Y-56564182D01*
X146332744Y-56564182D01*
X146328781Y-56566005D01*
X146005340Y-56714771D01*
X145693192Y-56901588D01*
X145403046Y-57121023D01*
X145138296Y-57370511D01*
X144902040Y-57647132D01*
X144697040Y-57947651D01*
X144525694Y-58268552D01*
X144524419Y-58271724D01*
X144524417Y-58271728D01*
X144476466Y-58391012D01*
X144390009Y-58606081D01*
X144389090Y-58609349D01*
X144389088Y-58609356D01*
X144306655Y-58902619D01*
X144291569Y-58956290D01*
X144231528Y-59315082D01*
X144210587Y-59678259D01*
X136532544Y-59678259D01*
X136514287Y-59420403D01*
X136457402Y-59156185D01*
X136448862Y-59133035D01*
X136365397Y-58906796D01*
X136363856Y-58902619D01*
X136313071Y-58808498D01*
X136237629Y-58668678D01*
X136237629Y-58668677D01*
X136235516Y-58664762D01*
X136074942Y-58447362D01*
X136068363Y-58440678D01*
X135981872Y-58352818D01*
X135885338Y-58254756D01*
X135775857Y-58171203D01*
X135674028Y-58093489D01*
X135674024Y-58093487D01*
X135670487Y-58090787D01*
X135434675Y-57958727D01*
X135182609Y-57861210D01*
X135178284Y-57860207D01*
X135178279Y-57860206D01*
X135041610Y-57828528D01*
X134919318Y-57800182D01*
X134650054Y-57776861D01*
X134645619Y-57777105D01*
X134645615Y-57777105D01*
X134384634Y-57791468D01*
X134384627Y-57791469D01*
X134380191Y-57791713D01*
X134248622Y-57817883D01*
X134119484Y-57843570D01*
X134119479Y-57843571D01*
X134115112Y-57844440D01*
X134110909Y-57845916D01*
X133864315Y-57932513D01*
X133864312Y-57932514D01*
X133860107Y-57933991D01*
X133856154Y-57936044D01*
X133856148Y-57936047D01*
X133750763Y-57990791D01*
X133620264Y-58058580D01*
X133616649Y-58061163D01*
X133616643Y-58061167D01*
X133403990Y-58213131D01*
X133403986Y-58213134D01*
X133400369Y-58215719D01*
X133336984Y-58276185D01*
X133216615Y-58391012D01*
X133204808Y-58402275D01*
X133037485Y-58614524D01*
X133035253Y-58618366D01*
X133035250Y-58618371D01*
X132949624Y-58765786D01*
X132898113Y-58814644D01*
X132840670Y-58828500D01*
X126322443Y-58828500D01*
X126254322Y-58808498D01*
X126207829Y-58754842D01*
X126204231Y-58746111D01*
X126179397Y-58678796D01*
X126177856Y-58674619D01*
X126174650Y-58668678D01*
X126051629Y-58440678D01*
X126051629Y-58440677D01*
X126049516Y-58436762D01*
X125888942Y-58219362D01*
X125882809Y-58213131D01*
X125760230Y-58088612D01*
X125699338Y-58026756D01*
X125575850Y-57932513D01*
X125488028Y-57865489D01*
X125488024Y-57865487D01*
X125484487Y-57862787D01*
X125248675Y-57730727D01*
X124996609Y-57633210D01*
X124992284Y-57632207D01*
X124992279Y-57632206D01*
X124886748Y-57607746D01*
X124733318Y-57572182D01*
X124464054Y-57548861D01*
X124459619Y-57549105D01*
X124459615Y-57549105D01*
X124198634Y-57563468D01*
X124198627Y-57563469D01*
X124194191Y-57563713D01*
X124062622Y-57589883D01*
X123933484Y-57615570D01*
X123933479Y-57615571D01*
X123929112Y-57616440D01*
X123924909Y-57617916D01*
X123678315Y-57704513D01*
X123678312Y-57704514D01*
X123674107Y-57705991D01*
X123670154Y-57708044D01*
X123670148Y-57708047D01*
X123626488Y-57730727D01*
X123434264Y-57830580D01*
X123430649Y-57833163D01*
X123430643Y-57833167D01*
X123217990Y-57985131D01*
X123217986Y-57985134D01*
X123214369Y-57987719D01*
X123151853Y-58047356D01*
X123103494Y-58093489D01*
X123018808Y-58174275D01*
X122851485Y-58386524D01*
X122849253Y-58390366D01*
X122849250Y-58390371D01*
X122717974Y-58616377D01*
X122717971Y-58616384D01*
X122715736Y-58620231D01*
X122614272Y-58870735D01*
X122613201Y-58875048D01*
X122613199Y-58875053D01*
X122550189Y-59128714D01*
X122549116Y-59133035D01*
X122521569Y-59401899D01*
X122532180Y-59671963D01*
X122540091Y-59715278D01*
X122562646Y-59838777D01*
X122580737Y-59937837D01*
X122666272Y-60194217D01*
X122668264Y-60198204D01*
X122668265Y-60198206D01*
X122672206Y-60206093D01*
X122684761Y-60275971D01*
X122657545Y-60341544D01*
X122648588Y-60351507D01*
X112637747Y-70362348D01*
X112629461Y-70369888D01*
X112622982Y-70374000D01*
X112617557Y-70379777D01*
X112576357Y-70423651D01*
X112573602Y-70426493D01*
X112553865Y-70446230D01*
X112551385Y-70449427D01*
X112543682Y-70458447D01*
X112513414Y-70490679D01*
X112509595Y-70497625D01*
X112509593Y-70497628D01*
X112503652Y-70508434D01*
X112492801Y-70524953D01*
X112480386Y-70540959D01*
X112477241Y-70548228D01*
X112477238Y-70548232D01*
X112462826Y-70581537D01*
X112457609Y-70592187D01*
X112436305Y-70630940D01*
X112434334Y-70638615D01*
X112434334Y-70638616D01*
X112431267Y-70650562D01*
X112424863Y-70669266D01*
X112416819Y-70687855D01*
X112415580Y-70695678D01*
X112415577Y-70695688D01*
X112409901Y-70731524D01*
X112407495Y-70743144D01*
X112396500Y-70785970D01*
X112396500Y-70806224D01*
X112394949Y-70825934D01*
X112391780Y-70845943D01*
X112392526Y-70853835D01*
X112395941Y-70889961D01*
X112396500Y-70901819D01*
X112396500Y-76402167D01*
X112376498Y-76470288D01*
X112322842Y-76516781D01*
X112252568Y-76526885D01*
X112187988Y-76497391D01*
X112158534Y-76459957D01*
X112043550Y-76237178D01*
X112039122Y-76229866D01*
X111920031Y-76060417D01*
X111909509Y-76052037D01*
X111896121Y-76059089D01*
X110692022Y-77263188D01*
X110684408Y-77277132D01*
X109954356Y-77277132D01*
X109955592Y-77274868D01*
X109955461Y-77273035D01*
X109951210Y-77266420D01*
X108743814Y-76059024D01*
X108731804Y-76052466D01*
X108720064Y-76061434D01*
X108611935Y-76211911D01*
X108607418Y-76219196D01*
X108483325Y-76453567D01*
X108479839Y-76461395D01*
X108388700Y-76710446D01*
X108386311Y-76718670D01*
X108329812Y-76977795D01*
X108328563Y-76986250D01*
X108307754Y-77250653D01*
X108307665Y-77259204D01*
X94970500Y-77259204D01*
X94970500Y-75688500D01*
X109096584Y-75688500D01*
X109102980Y-75699770D01*
X110307188Y-76903978D01*
X110321132Y-76911592D01*
X110322965Y-76911461D01*
X110329580Y-76907210D01*
X111536604Y-75700186D01*
X111543795Y-75687017D01*
X111536473Y-75676780D01*
X111489233Y-75638115D01*
X111482261Y-75633160D01*
X111256122Y-75494582D01*
X111248552Y-75490624D01*
X111005704Y-75384022D01*
X110997644Y-75381120D01*
X110742592Y-75308467D01*
X110734214Y-75306685D01*
X110471656Y-75269318D01*
X110463111Y-75268691D01*
X110197908Y-75267302D01*
X110189374Y-75267839D01*
X109926433Y-75302456D01*
X109918035Y-75304149D01*
X109662238Y-75374127D01*
X109654143Y-75376946D01*
X109410199Y-75480997D01*
X109402577Y-75484881D01*
X109175013Y-75621075D01*
X109167981Y-75625962D01*
X109105053Y-75676377D01*
X109096584Y-75688500D01*
X94970500Y-75688500D01*
X94970500Y-59116259D01*
X96098587Y-59116259D01*
X96116992Y-59479574D01*
X96117529Y-59482929D01*
X96117530Y-59482935D01*
X96147095Y-59667514D01*
X96174527Y-59838777D01*
X96270519Y-60189664D01*
X96403845Y-60528133D01*
X96405428Y-60531148D01*
X96571362Y-60847206D01*
X96571367Y-60847214D01*
X96572946Y-60850222D01*
X96574840Y-60853040D01*
X96574845Y-60853049D01*
X96730569Y-61084790D01*
X96775843Y-61152165D01*
X97010163Y-61430428D01*
X97083192Y-61500216D01*
X97270702Y-61679405D01*
X97270709Y-61679411D01*
X97273165Y-61681758D01*
X97561771Y-61903214D01*
X97564689Y-61904988D01*
X97869692Y-62090433D01*
X97869697Y-62090436D01*
X97872607Y-62092205D01*
X97875695Y-62093651D01*
X97875694Y-62093651D01*
X98198952Y-62245077D01*
X98198962Y-62245081D01*
X98202036Y-62246521D01*
X98205254Y-62247623D01*
X98205257Y-62247624D01*
X98542981Y-62363253D01*
X98542989Y-62363255D01*
X98546204Y-62364356D01*
X98901084Y-62444332D01*
X98954123Y-62450375D01*
X99259144Y-62485128D01*
X99259152Y-62485128D01*
X99262527Y-62485513D01*
X99265931Y-62485531D01*
X99265934Y-62485531D01*
X99464058Y-62486568D01*
X99626303Y-62487418D01*
X99629689Y-62487068D01*
X99629691Y-62487068D01*
X99984765Y-62450375D01*
X99984774Y-62450374D01*
X99988157Y-62450024D01*
X99991490Y-62449310D01*
X99991493Y-62449309D01*
X100101895Y-62425641D01*
X100343856Y-62373768D01*
X100689239Y-62259544D01*
X100692323Y-62258138D01*
X100692332Y-62258135D01*
X101017171Y-62110096D01*
X101020265Y-62108686D01*
X101220454Y-61989823D01*
X101330128Y-61924704D01*
X101330132Y-61924701D01*
X101333063Y-61922961D01*
X101623973Y-61704539D01*
X101889592Y-61455977D01*
X102126813Y-61180182D01*
X102238184Y-61018136D01*
X102330931Y-60883190D01*
X102330936Y-60883182D01*
X102332861Y-60880381D01*
X102334473Y-60877387D01*
X102334478Y-60877379D01*
X102459718Y-60644781D01*
X102505325Y-60560080D01*
X102642188Y-60223027D01*
X102651600Y-60189988D01*
X102684756Y-60073593D01*
X102741850Y-59873164D01*
X102752079Y-59813324D01*
X102802571Y-59517930D01*
X102802571Y-59517928D01*
X102803143Y-59514583D01*
X102805285Y-59479574D01*
X102825241Y-59153278D01*
X102825351Y-59151481D01*
X102825400Y-59137465D01*
X102825427Y-59129820D01*
X102825427Y-59129808D01*
X102825433Y-59128000D01*
X102805760Y-58764751D01*
X102746972Y-58405752D01*
X102649756Y-58055202D01*
X102645331Y-58044081D01*
X102516508Y-57720365D01*
X102515249Y-57717201D01*
X102438998Y-57573188D01*
X102346624Y-57398723D01*
X102346620Y-57398716D01*
X102345025Y-57395704D01*
X102343118Y-57392888D01*
X102343113Y-57392879D01*
X102142985Y-57097292D01*
X102141075Y-57094471D01*
X101905785Y-56817027D01*
X101641908Y-56566617D01*
X101386084Y-56371731D01*
X101355237Y-56348232D01*
X101355235Y-56348230D01*
X101352530Y-56346170D01*
X101349618Y-56344413D01*
X101349613Y-56344410D01*
X101043951Y-56160023D01*
X101043945Y-56160020D01*
X101041036Y-56158265D01*
X100711071Y-56005100D01*
X100366494Y-55888467D01*
X100357234Y-55886414D01*
X100282485Y-55869843D01*
X100011336Y-55809731D01*
X99882217Y-55795476D01*
X99653133Y-55770184D01*
X99653128Y-55770184D01*
X99649752Y-55769811D01*
X99646353Y-55769805D01*
X99646352Y-55769805D01*
X99474762Y-55769506D01*
X99285972Y-55769176D01*
X99150831Y-55783618D01*
X98927634Y-55807471D01*
X98927628Y-55807472D01*
X98924250Y-55807833D01*
X98568820Y-55885330D01*
X98223838Y-56000759D01*
X97893340Y-56152771D01*
X97581192Y-56339588D01*
X97291046Y-56559023D01*
X97026296Y-56808511D01*
X96790040Y-57085132D01*
X96788112Y-57087959D01*
X96788110Y-57087961D01*
X96758780Y-57130958D01*
X96585040Y-57385651D01*
X96583439Y-57388650D01*
X96438929Y-57659292D01*
X96413694Y-57706552D01*
X96412419Y-57709724D01*
X96412417Y-57709728D01*
X96284974Y-58026756D01*
X96278009Y-58044081D01*
X96277090Y-58047349D01*
X96277088Y-58047356D01*
X96180490Y-58391012D01*
X96179569Y-58394290D01*
X96179007Y-58397647D01*
X96179007Y-58397648D01*
X96120695Y-58746111D01*
X96119528Y-58753082D01*
X96098587Y-59116259D01*
X94970500Y-59116259D01*
X94970500Y-55017618D01*
X94990502Y-54949497D01*
X95044158Y-54903004D01*
X95096722Y-54891618D01*
X151257722Y-54990385D01*
G37*
%TD.AperFunction*%
%TD*%
M02*
