%TF.GenerationSoftware,KiCad,Pcbnew,(6.0.7-1)-1*%
%TF.CreationDate,2022-09-01T10:05:59+09:00*%
%TF.ProjectId,Battery,42617474-6572-4792-9e6b-696361645f70,rev?*%
%TF.SameCoordinates,Original*%
%TF.FileFunction,Legend,Top*%
%TF.FilePolarity,Positive*%
%FSLAX46Y46*%
G04 Gerber Fmt 4.6, Leading zero omitted, Abs format (unit mm)*
G04 Created by KiCad (PCBNEW (6.0.7-1)-1) date 2022-09-01 10:05:59*
%MOMM*%
%LPD*%
G01*
G04 APERTURE LIST*
%ADD10C,0.150000*%
%ADD11C,0.120000*%
G04 APERTURE END LIST*
D10*
%TO.C,R4*%
X194414380Y-128944666D02*
X193938190Y-129278000D01*
X194414380Y-129516095D02*
X193414380Y-129516095D01*
X193414380Y-129135142D01*
X193462000Y-129039904D01*
X193509619Y-128992285D01*
X193604857Y-128944666D01*
X193747714Y-128944666D01*
X193842952Y-128992285D01*
X193890571Y-129039904D01*
X193938190Y-129135142D01*
X193938190Y-129516095D01*
X193747714Y-128087523D02*
X194414380Y-128087523D01*
X193366761Y-128325619D02*
X194081047Y-128563714D01*
X194081047Y-127944666D01*
%TO.C,R3*%
X194414380Y-99988666D02*
X193938190Y-100322000D01*
X194414380Y-100560095D02*
X193414380Y-100560095D01*
X193414380Y-100179142D01*
X193462000Y-100083904D01*
X193509619Y-100036285D01*
X193604857Y-99988666D01*
X193747714Y-99988666D01*
X193842952Y-100036285D01*
X193890571Y-100083904D01*
X193938190Y-100179142D01*
X193938190Y-100560095D01*
X193414380Y-99655333D02*
X193414380Y-99036285D01*
X193795333Y-99369619D01*
X193795333Y-99226761D01*
X193842952Y-99131523D01*
X193890571Y-99083904D01*
X193985809Y-99036285D01*
X194223904Y-99036285D01*
X194319142Y-99083904D01*
X194366761Y-99131523D01*
X194414380Y-99226761D01*
X194414380Y-99512476D01*
X194366761Y-99607714D01*
X194319142Y-99655333D01*
%TO.C,R2*%
X184254380Y-128944666D02*
X183778190Y-129278000D01*
X184254380Y-129516095D02*
X183254380Y-129516095D01*
X183254380Y-129135142D01*
X183302000Y-129039904D01*
X183349619Y-128992285D01*
X183444857Y-128944666D01*
X183587714Y-128944666D01*
X183682952Y-128992285D01*
X183730571Y-129039904D01*
X183778190Y-129135142D01*
X183778190Y-129516095D01*
X183349619Y-128563714D02*
X183302000Y-128516095D01*
X183254380Y-128420857D01*
X183254380Y-128182761D01*
X183302000Y-128087523D01*
X183349619Y-128039904D01*
X183444857Y-127992285D01*
X183540095Y-127992285D01*
X183682952Y-128039904D01*
X184254380Y-128611333D01*
X184254380Y-127992285D01*
%TO.C,R1*%
X184254380Y-99988666D02*
X183778190Y-100322000D01*
X184254380Y-100560095D02*
X183254380Y-100560095D01*
X183254380Y-100179142D01*
X183302000Y-100083904D01*
X183349619Y-100036285D01*
X183444857Y-99988666D01*
X183587714Y-99988666D01*
X183682952Y-100036285D01*
X183730571Y-100083904D01*
X183778190Y-100179142D01*
X183778190Y-100560095D01*
X184254380Y-99036285D02*
X184254380Y-99607714D01*
X184254380Y-99322000D02*
X183254380Y-99322000D01*
X183397238Y-99417238D01*
X183492476Y-99512476D01*
X183540095Y-99607714D01*
%TO.C,J1*%
X171070380Y-114379333D02*
X171784666Y-114379333D01*
X171927523Y-114426952D01*
X172022761Y-114522190D01*
X172070380Y-114665047D01*
X172070380Y-114760285D01*
X172070380Y-113379333D02*
X172070380Y-113950761D01*
X172070380Y-113665047D02*
X171070380Y-113665047D01*
X171213238Y-113760285D01*
X171308476Y-113855523D01*
X171356095Y-113950761D01*
D11*
%TO.C,R4*%
X189992000Y-120258000D02*
X189992000Y-121508000D01*
X192962000Y-136048000D02*
X192962000Y-121508000D01*
X187022000Y-136048000D02*
X192962000Y-136048000D01*
X189992000Y-137298000D02*
X189992000Y-136048000D01*
X192962000Y-121508000D02*
X187022000Y-121508000D01*
X187022000Y-121508000D02*
X187022000Y-136048000D01*
%TO.C,R3*%
X189992000Y-91302000D02*
X189992000Y-92552000D01*
X192962000Y-107092000D02*
X192962000Y-92552000D01*
X187022000Y-107092000D02*
X192962000Y-107092000D01*
X189992000Y-108342000D02*
X189992000Y-107092000D01*
X192962000Y-92552000D02*
X187022000Y-92552000D01*
X187022000Y-92552000D02*
X187022000Y-107092000D01*
%TO.C,R2*%
X179832000Y-120258000D02*
X179832000Y-121508000D01*
X182802000Y-136048000D02*
X182802000Y-121508000D01*
X176862000Y-136048000D02*
X182802000Y-136048000D01*
X179832000Y-137298000D02*
X179832000Y-136048000D01*
X182802000Y-121508000D02*
X176862000Y-121508000D01*
X176862000Y-121508000D02*
X176862000Y-136048000D01*
%TO.C,R1*%
X179832000Y-91302000D02*
X179832000Y-92552000D01*
X182802000Y-107092000D02*
X182802000Y-92552000D01*
X176862000Y-107092000D02*
X182802000Y-107092000D01*
X179832000Y-108342000D02*
X179832000Y-107092000D01*
X182802000Y-92552000D02*
X176862000Y-92552000D01*
X176862000Y-92552000D02*
X176862000Y-107092000D01*
%TO.C,J1*%
X170808000Y-120706000D02*
X167478000Y-120706000D01*
X155848000Y-107386000D02*
X163958000Y-107386000D01*
X171028000Y-109646000D02*
X171028000Y-111446000D01*
X155848000Y-107386000D02*
X155848000Y-106736000D01*
X170808000Y-107386000D02*
X170808000Y-120706000D01*
X155328000Y-121356000D02*
X155848000Y-121356000D01*
X155848000Y-121356000D02*
X155848000Y-120706000D01*
X155848000Y-106736000D02*
X155328000Y-106736000D01*
X163958000Y-120706000D02*
X155848000Y-120706000D01*
X155328000Y-106736000D02*
X155328000Y-121356000D01*
X170808000Y-107386000D02*
X167478000Y-107386000D01*
%TD*%
M02*
